# xmcd
#
# Track frame offsets:
# 150
# 19245
# 34862
# 53032
# 72830
# 90740
# 108417
# 126977
# 143875
# 162677
# 178167
#
# Disc length: 2609 seconds
#
#
# Revision: 2
# Processed by: cddbd v1.5.2PL0 Copyright (c) Steve Scherf et al.
# Submitted via: FreeRIP 2.96 
#
DISCID=9f0a2f0b
DTITLE=Micheal Brennan - Cautious Man
DYEAR=2005
DGENRE=Country
TTITLE0=How I Missed Ya
TTITLE1=Gentle With This Heart Of Mine
TTITLE2=Cautious Man
TTITLE3=Spiritual Advice
TTITLE4=Check My Blues
TTITLE5=Dreams Always Lie
TTITLE6=Lights Of The Town
TTITLE7=Tender Love
TTITLE8=Honky Tonkin Two-Bit Affair
TTITLE9=Time For A Change
TTITLE10=Endless Highway
EXTD=
EXTT0=
EXTT1=
EXTT2=
EXTT3=
EXTT4=
EXTT5=
EXTT6=
EXTT7=
EXTT8=
EXTT9=
EXTT10=
PLAYORDER=
